<svg xmlns="http://www.w3.org/2000/svg" xmlns:xlink="http://www.w3.org/1999/xlink" viewBox="0 0 315 100" width="315" height="100" preserveAspectRatio="xMidYMid meet" style="width: 100%; height: 100%; transform: translate3d(0px, 0px, 0px); content-visibility: visible;"><defs><clipPath id="__lottie_element_4"><rect width="315" height="100" x="0" y="0"></rect></clipPath></defs><g clip-path="url(#__lottie_element_4)"><g transform="matrix(1,0,0,1,7.649999618530273,27.450000762939453)" opacity="1" style="display: block;"><g opacity="1" transform="matrix(1,0,0,1,20.75,19.5)"><path fill="rgb(44,50,41)" fill-opacity="1" d=" M20.399999618530273,-19.25 C20.399999618530273,-19.25 6.400000095367432,-19.25 6.400000095367432,-19.25 C6.400000095367432,-19.25 6.199999809265137,-15.949999809265137 6.199999809265137,-15.949999809265137 C6.199999809265137,-15.949999809265137 10.699999809265137,-14.850000381469727 10.699999809265137,-14.850000381469727 C10.800000190734863,-14.550000190734863 10.899999618530273,-13.25 11,-10.949999809265137 C11,-8.649999618530273 11.100000381469727,-5.949999809265137 11.100000381469727,-2.8499999046325684 C11.100000381469727,-2.8499999046325684 11.100000381469727,3.75 11.100000381469727,3.75 C11.100000381469727,3.75 -9.800000190734863,-19.25 -9.800000190734863,-19.25 C-9.800000190734863,-19.25 -20.200000762939453,-19.25 -20.200000762939453,-19.25 C-20.200000762939453,-19.25 -20.399999618530273,-15.949999809265137 -20.399999618530273,-15.949999809265137 C-20.399999618530273,-15.949999809265137 -16.299999237060547,-14.850000381469727 -16.299999237060547,-14.850000381469727 C-16.299999237060547,-14.449999809265137 -16.200000762939453,-13.350000381469727 -16.100000381469727,-11.550000190734863 C-16,-9.850000381469727 -15.899999618530273,-8.149999618530273 -15.899999618530273,-6.650000095367432 C-15.899999618530273,-6.650000095367432 -15.899999618530273,1.75 -15.899999618530273,1.75 C-15.899999618530273,4.949999809265137 -15.899999618530273,7.849999904632568 -16.100000381469727,10.350000381469727 C-16.100000381469727,12.850000381469727 -16.299999237060547,14.25 -16.399999618530273,14.649999618530273 C-16.399999618530273,14.649999618530273 -20.5,15.75 -20.5,15.75 C-20.5,15.75 -20.299999237060547,19.049999237060547 -20.299999237060547,19.049999237060547 C-20.299999237060547,19.049999237060547 -6.099999904632568,19.049999237060547 -6.099999904632568,19.049999237060547 C-6.099999904632568,19.049999237060547 -5.900000095367432,15.75 -5.900000095367432,15.75 C-5.900000095367432,15.75 -10.5,14.649999618530273 -10.5,14.649999618530273 C-10.699999809265137,14.25 -10.800000190734863,12.850000381469727 -10.899999618530273,10.550000190734863 C-10.899999618530273,10.550000190734863 -10.899999618530273,1.75 -10.899999618530273,1.75 C-10.899999618530273,1.75 -10.899999618530273,-6.650000095367432 -10.899999618530273,-6.650000095367432 C-10.899999618530273,-6.650000095367432 11.800000190734863,19.25 11.800000190734863,19.25 C11.800000190734863,19.25 15.800000190734863,19.25 15.800000190734863,19.25 C15.800000190734863,19.25 15.800000190734863,14.75 15.800000190734863,14.75 C15.800000190734863,14.75 15.800000190734863,9.25 15.800000190734863,9.25 C15.800000190734863,9.25 15.800000190734863,-2.8499999046325684 15.800000190734863,-2.8499999046325684 C15.800000190734863,-5.949999809265137 15.800000190734863,-8.649999618530273 15.899999618530273,-10.949999809265137 C15.899999618530273,-13.25 16.100000381469727,-14.550000190734863 16.200000762939453,-14.850000381469727 C16.200000762939453,-14.850000381469727 20.399999618530273,-15.949999809265137 20.399999618530273,-15.949999809265137 C20.399999618530273,-15.949999809265137 20.200000762939453,-19.25 20.200000762939453,-19.25 C20.200000762939453,-19.25 20.399999618530273,-19.25 20.399999618530273,-19.25z"></path></g></g><g transform="matrix(1,0,0,1,50.04999923706055,36.44999694824219)" opacity="1" style="display: block;"><g opacity="1" transform="matrix(1,0,0,1,13.949999809265137,15.100000381469727)"><path fill="rgb(44,50,41)" fill-opacity="1" d=" M11.600000381469727,4.849999904632568 C10.5,6.150000095367432 9.300000190734863,7.050000190734863 8.100000381469727,7.650000095367432 C6.900000095367432,8.149999618530273 5.599999904632568,8.449999809265137 4.099999904632568,8.449999809265137 C1.399999976158142,8.449999809265137 -0.800000011920929,7.550000190734863 -2.5,5.650000095367432 C-3.9000000953674316,4.050000190734863 -4.699999809265137,2.049999952316284 -4.900000095367432,-0.44999998807907104 C-4.900000095367432,-0.44999998807907104 13.300000190734863,-0.44999998807907104 13.300000190734863,-0.44999998807907104 C13.300000190734863,-0.44999998807907104 13.300000190734863,-2.049999952316284 13.300000190734863,-2.049999952316284 C13.300000190734863,-5.849999904632568 12.199999809265137,-8.949999809265137 10.100000381469727,-11.350000381469727 C8,-13.75 5,-14.850000381469727 1.2000000476837158,-14.850000381469727 C-2.5999999046325684,-14.850000381469727 -3.799999952316284,-14.25 -6.099999904632568,-12.949999809265137 C-8.300000190734863,-11.649999618530273 -10.199999809265137,-9.850000381469727 -11.600000381469727,-7.550000190734863 C-13,-5.25 -13.699999809265137,-2.6500000953674316 -13.699999809265137,0.3499999940395355 C-13.699999809265137,3.3499999046325684 -13.100000381469727,5.550000190734863 -11.800000190734863,7.75 C-10.600000381469727,9.949999809265137 -8.800000190734863,11.649999618530273 -6.599999904632568,12.949999809265137 C-4.400000095367432,14.149999618530273 -1.7999999523162842,14.850000381469727 1,14.850000381469727 C3.799999952316284,14.850000381469727 6.300000190734863,14.149999618530273 8.5,12.850000381469727 C10.699999809265137,11.449999809265137 12.399999618530273,9.550000190734863 13.699999809265137,6.849999904632568 C13.699999809265137,6.849999904632568 11.699999809265137,4.949999809265137 11.699999809265137,4.949999809265137 C11.699999809265137,4.949999809265137 11.600000381469727,4.849999904632568 11.600000381469727,4.849999904632568z M0.6000000238418579,-11.149999618530273 C2.200000047683716,-11.149999618530273 3.4000000953674316,-10.550000190734863 4.300000190734863,-9.449999809265137 C5.199999809265137,-8.25 5.599999904632568,-6.650000095367432 5.599999904632568,-4.650000095367432 C5.599999904632568,-4.650000095367432 5.599999904632568,-4.050000190734863 5.599999904632568,-4.050000190734863 C5.599999904632568,-4.050000190734863 -5,-4.050000190734863 -5,-4.050000190734863 C-4.900000095367432,-6.349999904632568 -4.300000190734863,-8.050000190734863 -3.4000000953674316,-9.25 C-2.299999952316284,-10.649999618530273 -1,-11.25 0.6000000238418579,-11.25 C0.6000000238418579,-11.25 0.6000000238418579,-11.149999618530273 0.6000000238418579,-11.149999618530273z"></path></g></g><g transform="matrix(1,0,0,1,75.6500015258789,36.95000076293945)" opacity="1" style="display: block;"><g opacity="1" transform="matrix(1,0,0,1,27.25,14.699999809265137)"><path fill="rgb(44,50,41)" fill-opacity="1" d=" M26.799999237060547,-14.449999809265137 C26.799999237060547,-14.449999809265137 15.600000381469727,-14.449999809265137 15.600000381469727,-14.449999809265137 C15.600000381469727,-14.449999809265137 15.5,-11.449999809265137 15.5,-11.449999809265137 C15.5,-11.449999809265137 18.799999237060547,-10.25 18.799999237060547,-10.25 C18.799999237060547,-10.25 12.899999618530273,3.3499999046325684 12.899999618530273,3.3499999046325684 C12.899999618530273,3.3499999046325684 7.199999809265137,-10.25 7.199999809265137,-10.25 C7.199999809265137,-10.25 10.600000381469727,-11.449999809265137 10.600000381469727,-11.449999809265137 C10.600000381469727,-11.449999809265137 10.399999618530273,-14.449999809265137 10.399999618530273,-14.449999809265137 C10.399999618530273,-14.449999809265137 -5.800000190734863,-14.449999809265137 -5.800000190734863,-14.449999809265137 C-5.800000190734863,-14.449999809265137 -5.900000095367432,-11.449999809265137 -5.900000095367432,-11.449999809265137 C-5.900000095367432,-11.449999809265137 -2.9000000953674316,-10.25 -2.9000000953674316,-10.25 C-2.9000000953674316,-10.25 -2.200000047683716,-8.649999618530273 -2.200000047683716,-8.649999618530273 C-2.200000047683716,-8.649999618530273 -7.800000190734863,3.25 -7.800000190734863,3.25 C-7.800000190734863,3.25 -13.699999809265137,-10.25 -13.699999809265137,-10.25 C-13.699999809265137,-10.25 -10.699999809265137,-11.449999809265137 -10.699999809265137,-11.449999809265137 C-10.699999809265137,-11.449999809265137 -10.800000190734863,-14.449999809265137 -10.800000190734863,-14.449999809265137 C-10.800000190734863,-14.449999809265137 -26.799999237060547,-14.449999809265137 -26.799999237060547,-14.449999809265137 C-26.799999237060547,-14.449999809265137 -27,-11.449999809265137 -27,-11.449999809265137 C-27,-11.449999809265137 -24,-10.25 -24,-10.25 C-24,-10.25 -12.300000190734863,14.449999809265137 -12.300000190734863,14.449999809265137 C-12.300000190734863,14.449999809265137 -9.399999618530273,14.449999809265137 -9.399999618530273,14.449999809265137 C-9.399999618530273,14.449999809265137 0,-3.950000047683716 0,-3.950000047683716 C0,-3.950000047683716 8.5,14.449999809265137 8.5,14.449999809265137 C8.5,14.449999809265137 11.399999618530273,14.449999809265137 11.399999618530273,14.449999809265137 C11.399999618530273,14.449999809265137 23.899999618530273,-10.25 23.899999618530273,-10.25 C23.899999618530273,-10.25 27,-11.449999809265137 27,-11.449999809265137 C27,-11.449999809265137 26.799999237060547,-14.449999809265137 26.799999237060547,-14.449999809265137z"></path></g></g><g transform="matrix(1,0,0,1,128.0500030517578,27.55000877380371)" opacity="1" style="display: block;"><g opacity="1" transform="matrix(1,0,0,1,17.549999237060547,19.399999618530273)"><path fill="rgb(44,50,41)" fill-opacity="1" d=" M14,0.949999988079071 C12.199999809265137,-0.44999998807907104 9.800000190734863,-1.350000023841858 6.699999809265137,-1.649999976158142 C8.899999618530273,-2.049999952316284 10.699999809265137,-2.8499999046325684 12.199999809265137,-3.950000047683716 C14.300000190734863,-5.550000190734863 15.399999618530273,-7.550000190734863 15.399999618530273,-9.949999809265137 C15.399999618530273,-16.049999237060547 10.800000190734863,-19.149999618530273 1.7000000476837158,-19.149999618530273 C1.7000000476837158,-19.149999618530273 -17.100000381469727,-19.149999618530273 -17.100000381469727,-19.149999618530273 C-17.100000381469727,-19.149999618530273 -17.299999237060547,-15.850000381469727 -17.299999237060547,-15.850000381469727 C-17.299999237060547,-15.850000381469727 -13.100000381469727,-14.75 -13.100000381469727,-14.75 C-13,-14.550000190734863 -12.899999618530273,-13.449999809265137 -12.800000190734863,-11.550000190734863 C-12.699999809265137,-9.649999618530273 -12.699999809265137,-7.349999904632568 -12.699999809265137,-4.650000095367432 C-12.699999809265137,-4.650000095367432 -12.699999809265137,4.650000095367432 -12.699999809265137,4.650000095367432 C-12.699999809265137,7.349999904632568 -12.699999809265137,9.550000190734863 -12.800000190734863,11.550000190734863 C-12.800000190734863,13.449999809265137 -13,14.550000190734863 -13.100000381469727,14.75 C-13.100000381469727,14.75 -17.299999237060547,15.850000381469727 -17.299999237060547,15.850000381469727 C-17.299999237060547,15.850000381469727 -17.100000381469727,19.149999618530273 -17.100000381469727,19.149999618530273 C-17.100000381469727,19.149999618530273 0.30000001192092896,19.149999618530273 0.30000001192092896,19.149999618530273 C5.699999809265137,19.149999618530273 9.899999618530273,18.149999618530273 12.800000190734863,16.25 C15.800000190734863,14.350000381469727 17.299999237060547,11.550000190734863 17.299999237060547,7.949999809265137 C17.299999237060547,4.349999904632568 16.200000762939453,2.8499999046325684 13.899999618530273,1.149999976158142 C13.899999618530273,1.149999976158142 14,0.949999988079071 14,0.949999988079071z M-3.5999999046325684,-7.650000095367432 C-3.5999999046325684,-7.650000095367432 -3.5999999046325684,-12.75 -3.5999999046325684,-12.75 C-3.5999999046325684,-14.25 -3.5999999046325684,-15.149999618530273 -3.5,-15.550000190734863 C-3.5,-15.550000190734863 -1.2999999523162842,-15.550000190734863 -1.2999999523162842,-15.550000190734863 C1.100000023841858,-15.550000190734863 2.799999952316284,-14.949999809265137 3.9000000953674316,-13.850000381469727 C5,-12.75 5.599999904632568,-11.149999618530273 5.599999904632568,-9.25 C5.599999904632568,-7.349999904632568 5,-5.550000190734863 3.9000000953674316,-4.349999904632568 C2.799999952316284,-3.25 1,-2.6500000953674316 -1.2999999523162842,-2.6500000953674316 C-1.2999999523162842,-2.6500000953674316 -2.799999952316284,-2.6500000953674316 -2.799999952316284,-2.6500000953674316 C-2.799999952316284,-2.6500000953674316 -3.5999999046325684,-2.6500000953674316 -3.5999999046325684,-2.6500000953674316 C-3.5999999046325684,-2.6500000953674316 -3.5999999046325684,-7.650000095367432 -3.5999999046325684,-7.650000095367432z M5.800000190734863,13.449999809265137 C4.599999904632568,14.550000190734863 2.799999952316284,15.149999618530273 0.5,15.149999618530273 C-1.7999999523162842,15.149999618530273 -2.299999952316284,14.949999809265137 -3.4000000953674316,14.550000190734863 C-3.4000000953674316,14.050000190734863 -3.5,13.149999618530273 -3.5999999046325684,11.949999809265137 C-3.5999999046325684,11.949999809265137 -3.5999999046325684,7.449999809265137 -3.5999999046325684,7.449999809265137 C-3.5999999046325684,7.449999809265137 -3.5999999046325684,1.75 -3.5999999046325684,1.75 C-3.5999999046325684,1.75 -2.9000000953674316,1.75 -2.9000000953674316,1.75 C-2.9000000953674316,1.75 -1,1.75 -1,1.75 C2,1.75 4.199999809265137,2.3499999046325684 5.5,3.549999952316284 C6.900000095367432,4.75 7.599999904632568,6.550000190734863 7.599999904632568,8.949999809265137 C7.599999904632568,11.350000381469727 7,12.550000190734863 5.699999809265137,13.649999618530273 C5.699999809265137,13.649999618530273 5.800000190734863,13.449999809265137 5.800000190734863,13.449999809265137z"></path></g></g><g transform="matrix(1,0,0,1,164.4499969482422,36.54999923706055)" opacity="1" style="display: block;"><g opacity="1" transform="matrix(1,0,0,1,15.5,15.050000190734863)"><path fill="rgb(44,50,41)" fill-opacity="1" d=" M0.15000000596046448,14.800000190734863 C-2.8499999046325684,14.800000190734863 -5.550000190734863,14.199999809265137 -7.849999904632568,13 C-10.149999618530273,11.800000190734863 -12.050000190734863,10.100000381469727 -13.350000381469727,7.900000095367432 C-14.649999618530273,5.699999809265137 -15.25,3.200000047683716 -15.25,0.4000000059604645 C-15.25,-2.4000000953674316 -14.550000190734863,-5.599999904632568 -13.050000190734863,-7.800000190734863 C-11.550000190734863,-10.100000381469727 -9.649999618530273,-11.800000190734863 -7.25,-13 C-4.849999904632568,-14.199999809265137 -2.25,-14.800000190734863 0.44999998807907104,-14.800000190734863 C3.1500000953674316,-14.800000190734863 5.949999809265137,-14.199999809265137 8.149999618530273,-12.899999618530273 C10.350000381469727,-11.699999809265137 12.149999618530273,-10 13.350000381469727,-7.800000190734863 C14.550000190734863,-5.599999904632568 15.25,-3.0999999046325684 15.25,-0.30000001192092896 C15.25,2.5 14.550000190734863,5.099999904632568 13.25,7.400000095367432 C11.949999809265137,9.699999809265137 10.149999618530273,11.5 7.849999904632568,12.800000190734863 C5.550000190734863,14.100000381469727 3.049999952316284,14.800000190734863 0.25,14.800000190734863 C0.25,14.800000190734863 0.15000000596046448,14.800000190734863 0.15000000596046448,14.800000190734863z M0.75,10.5 C2.3499999046325684,10.5 3.549999952316284,9.699999809265137 4.449999809265137,8.199999809265137 C5.349999904632568,6.699999809265137 5.75,4.5 5.75,1.7000000476837158 C5.75,-1.100000023841858 5.150000095367432,-5.099999904632568 3.950000047683716,-7.400000095367432 C2.75,-9.699999809265137 1.25,-10.899999618530273 -0.6499999761581421,-10.899999618530273 C-2.549999952316284,-10.899999618530273 -3.450000047683716,-10.100000381469727 -4.449999809265137,-8.399999618530273 C-5.349999904632568,-6.800000190734863 -5.849999904632568,-4.5 -5.849999904632568,-1.7000000476837158 C-5.849999904632568,1.100000023841858 -5.25,4.699999809265137 -3.950000047683716,7 C-2.6500000953674316,9.300000190734863 -1.149999976158142,10.5 0.75,10.5z"></path></g></g><g transform="matrix(1,0,0,1,195.64999389648438,20.14999771118164)" opacity="1" style="display: block;"><g opacity="1" transform="matrix(1,0,0,1,17.25,23.450000762939453)"><path fill="rgb(44,50,41)" fill-opacity="1" d=" M12.800000190734863,16.299999237060547 C12.800000190734863,15.199999809265137 12.600000381469727,14 12.5,12.800000190734863 C12.5,11.5 12.399999618530273,9.800000190734863 12.399999618530273,7.699999809265137 C12.399999618530273,7.699999809265137 12.399999618530273,-7.400000095367432 12.399999618530273,-7.400000095367432 C12.399999618530273,-9.899999618530273 12.5,-12.300000190734863 12.600000381469727,-14.5 C12.699999809265137,-16.799999237060547 12.800000190734863,-19.299999237060547 13,-22 C13,-22 11.199999809265137,-23.200000762939453 11.199999809265137,-23.200000762939453 C11.199999809265137,-23.200000762939453 -1.5,-19.899999618530273 -1.5,-19.899999618530273 C-1.5,-19.899999618530273 -1.5,-17.100000381469727 -1.5,-17.100000381469727 C-1.399999976158142,-17.100000381469727 3.5,-16.399999618530273 3.5,-16.399999618530273 C3.5,-16.399999618530273 3.5,-13.600000381469727 3.5,-13.600000381469727 C3.5,-12.399999618530273 3.5,-11.100000381469727 3.5999999046325684,-9.699999809265137 C3.5999999046325684,-9.699999809265137 3.5999999046325684,-5.900000095367432 3.5999999046325684,-5.900000095367432 C3.0999999046325684,-6.199999809265137 2.4000000953674316,-6.400000095367432 1.5,-6.5 C0.699999988079071,-6.699999809265137 -0.20000000298023224,-6.699999809265137 -1,-6.699999809265137 C-3.5999999046325684,-6.699999809265137 -6.199999809265137,-6.099999904632568 -8.600000381469727,-4.800000190734863 C-11,-3.5 -13,-1.7000000476837158 -14.600000381469727,0.6000000238418579 C-16.200000762939453,2.9000000953674316 -17,5.699999809265137 -17,8.899999618530273 C-17,12.100000381469727 -16.399999618530273,14.199999809265137 -15.199999809265137,16.299999237060547 C-14,18.399999618530273 -12.399999618530273,20 -10.5,21.200000762939453 C-8.5,22.399999618530273 -6.400000095367432,22.899999618530273 -4.099999904632568,22.899999618530273 C-1.7999999523162842,22.899999618530273 -1.399999976158142,22.5 0,21.799999237060547 C1.399999976158142,21 2.5999999046325684,19.700000762939453 3.700000047683716,17.799999237060547 C3.700000047683716,17.799999237060547 3.9000000953674316,17.799999237060547 3.9000000953674316,17.799999237060547 C3.9000000953674316,17.799999237060547 3.9000000953674316,22.200000762939453 3.9000000953674316,22.200000762939453 C3.9000000953674316,22.200000762939453 5.699999809265137,23.200000762939453 5.699999809265137,23.200000762939453 C5.699999809265137,23.200000762939453 17,20.200000762939453 17,20.200000762939453 C17,20.200000762939453 17,17.399999618530273 17,17.399999618530273 C17,17.399999618530273 12.600000381469727,16.5 12.600000381469727,16.5 C12.600000381469727,16.5 12.800000190734863,16.299999237060547 12.800000190734863,16.299999237060547z M3.799999952316284,13.800000190734863 C3.200000047683716,14.699999809265137 2.4000000953674316,15.399999618530273 1.600000023841858,15.800000190734863 C0.800000011920929,16.200000762939453 0,16.399999618530273 -0.6000000238418579,16.399999618530273 C-2.4000000953674316,16.399999618530273 -4,15.600000381469727 -5.400000095367432,13.899999618530273 C-6.699999809265137,12.199999809265137 -7.400000095367432,9.800000190734863 -7.400000095367432,6.599999904632568 C-7.400000095367432,3.4000000953674316 -6.800000190734863,1.399999976158142 -5.5,-0.30000001192092896 C-4.199999809265137,-2 -2.5999999046325684,-2.9000000953674316 -0.5,-2.9000000953674316 C1.600000023841858,-2.9000000953674316 1.100000023841858,-2.700000047683716 1.899999976158142,-2.4000000953674316 C2.700000047683716,-2.0999999046325684 3.4000000953674316,-1.600000023841858 3.9000000953674316,-0.8999999761581421 C3.9000000953674316,-0.8999999761581421 3.9000000953674316,13.699999809265137 3.9000000953674316,13.699999809265137 C3.9000000953674316,13.699999809265137 3.799999952316284,13.800000190734863 3.799999952316284,13.800000190734863z"></path></g></g><g transform="matrix(1,0,0,1,226.64999389648438,36.849998474121094)" opacity="1" style="display: block;"><g opacity="1" transform="matrix(1,0,0,1,17.100000381469727,22)"><path fill="rgb(44,50,41)" fill-opacity="1" d=" M16.649999618530273,-21.649999618530273 C16.649999618530273,-21.649999618530273 4.75,-21.649999618530273 4.75,-21.649999618530273 C4.75,-21.649999618530273 4.550000190734863,-18.649999618530273 4.550000190734863,-18.649999618530273 C4.550000190734863,-18.649999618530273 8.550000190734863,-17.549999237060547 8.550000190734863,-17.549999237060547 C8.550000190734863,-17.549999237060547 2.6500000953674316,-4.150000095367432 2.6500000953674316,-4.150000095367432 C2.6500000953674316,-4.150000095367432 -3.549999952316284,-17.549999237060547 -3.549999952316284,-17.549999237060547 C-3.549999952316284,-17.549999237060547 0.44999998807907104,-18.649999618530273 0.44999998807907104,-18.649999618530273 C0.44999998807907104,-18.649999618530273 0.25,-21.649999618530273 0.25,-21.649999618530273 C0.25,-21.649999618530273 -16.649999618530273,-21.649999618530273 -16.649999618530273,-21.649999618530273 C-16.649999618530273,-21.649999618530273 -16.850000381469727,-18.649999618530273 -16.850000381469727,-18.649999618530273 C-16.850000381469727,-18.649999618530273 -13.850000381469727,-17.549999237060547 -13.850000381469727,-17.549999237060547 C-13.850000381469727,-17.549999237060547 -2.549999952316284,5.75 -2.549999952316284,5.75 C-2.549999952316284,5.75 -6.050000190734863,12.25 -6.050000190734863,12.25 C-6.050000190734863,12.25 -10.550000190734863,13.449999809265137 -10.550000190734863,13.449999809265137 C-13.75,14.350000381469727 -15.350000381469727,15.850000381469727 -15.350000381469727,18.049999237060547 C-15.350000381469727,20.25 -14.949999809265137,19.950000762939453 -14.050000190734863,20.649999618530273 C-13.149999618530273,21.350000381469727 -11.949999809265137,21.75 -10.449999809265137,21.75 C-8.949999809265137,21.75 -7.75,21.350000381469727 -6.550000190734863,20.450000762939453 C-5.349999904632568,19.649999618530273 -4.050000190734863,17.950000762939453 -2.8499999046325684,15.449999809265137 C-2.8499999046325684,15.449999809265137 2.3499999046325684,4.75 2.3499999046325684,4.75 C2.3499999046325684,4.75 13.75,-17.649999618530273 13.75,-17.649999618530273 C13.75,-17.649999618530273 16.850000381469727,-18.75 16.850000381469727,-18.75 C16.850000381469727,-18.75 16.649999618530273,-21.75 16.649999618530273,-21.75 C16.649999618530273,-21.75 16.649999618530273,-21.649999618530273 16.649999618530273,-21.649999618530273z"></path></g></g><g transform="matrix(0.800000011920929,0,0,0.800000011920929,339.1510009765625,48.69999694824219)" opacity="1" style="display: none;"><g opacity="1" transform="matrix(1,0,0,1,-67.125,1.625)"><path fill="rgb(37,173,177)" fill-opacity="1" d=" M33.125,-15.125 C33.125,-15.125 33.125,15.125 33.125,15.125 C33.125,25.06599998474121 33.15700149536133,28.25 32.65599822998047,33.125 C32.65599822998047,33.125 33.29600143432617,33.125 33.29600143432617,33.125 C33.28099822998047,27.375 33.25699996948242,25.06599998474121 33.25699996948242,15.125 C33.25699996948242,15.125 33.25699996948242,-15.125 33.25699996948242,-15.125 C33.25699996948242,-25.06599998474121 33.15599822998047,-27.75 33.29600143432617,-33.125 C33.29600143432617,-33.125 32.65599822998047,-33.125 32.65599822998047,-33.125 C32.90700149536133,-26.375 33.125,-25.06599998474121 33.125,-15.125z"></path><path stroke-linecap="butt" stroke-linejoin="miter" fill-opacity="0" stroke-miterlimit="4" stroke="rgb(167,230,223)" stroke-opacity="1" stroke-width="0" d=" M33.125,-15.125 C33.125,-15.125 33.125,15.125 33.125,15.125 C33.125,25.06599998474121 33.15700149536133,28.25 32.65599822998047,33.125 C32.65599822998047,33.125 33.29600143432617,33.125 33.29600143432617,33.125 C33.28099822998047,27.375 33.25699996948242,25.06599998474121 33.25699996948242,15.125 C33.25699996948242,15.125 33.25699996948242,-15.125 33.25699996948242,-15.125 C33.25699996948242,-25.06599998474121 33.15599822998047,-27.75 33.29600143432617,-33.125 C33.29600143432617,-33.125 32.65599822998047,-33.125 32.65599822998047,-33.125 C32.90700149536133,-26.375 33.125,-25.06599998474121 33.125,-15.125z"></path></g></g><g transform="matrix(1,0,0,1,264.25,19.049999237060547)" opacity="1" style="display: block;"><g opacity="1" transform="matrix(1,0,0,1,21.200000762939453,11.949999809265137)"><path fill="rgb(37,173,177)" fill-opacity="1" d=" M19.049999237060547,9.100000381469727 C19.049999237060547,9.100000381469727 13.449999809265137,2.0999999046325684 13.449999809265137,2.0999999046325684 C13.449999809265137,2.0999999046325684 18.049999237060547,-3.0999999046325684 18.049999237060547,-3.0999999046325684 C18.049999237060547,-3.0999999046325684 19.850000381469727,-3.799999952316284 19.850000381469727,-3.799999952316284 C19.850000381469727,-3.799999952316284 19.850000381469727,-5.599999904632568 19.850000381469727,-5.599999904632568 C19.850000381469727,-5.599999904632568 13.149999618530273,-5.599999904632568 13.149999618530273,-5.599999904632568 C13.149999618530273,-5.599999904632568 13.149999618530273,-3.799999952316284 13.149999618530273,-3.799999952316284 C13.050000190734863,-3.799999952316284 14.649999618530273,-3.0999999046325684 14.649999618530273,-3.0999999046325684 C14.649999618530273,-3.0999999046325684 12.050000190734863,0.4000000059604645 12.050000190734863,0.4000000059604645 C12.050000190734863,0.4000000059604645 9.25,-3.0999999046325684 9.25,-3.0999999046325684 C9.25,-3.0999999046325684 10.850000381469727,-3.799999952316284 10.850000381469727,-3.799999952316284 C10.850000381469727,-3.799999952316284 10.850000381469727,-5.599999904632568 10.850000381469727,-5.599999904632568 C10.850000381469727,-5.599999904632568 1.25,-5.599999904632568 1.25,-5.599999904632568 C1.25,-5.599999904632568 1.25,-3.799999952316284 1.25,-3.799999952316284 C1.25,-3.799999952316284 2.950000047683716,-3.0999999046325684 2.950000047683716,-3.0999999046325684 C2.950000047683716,-3.0999999046325684 7.849999904632568,3.0999999046325684 7.849999904632568,3.0999999046325684 C7.849999904632568,3.0999999046325684 2.75,9.100000381469727 2.75,9.100000381469727 C2.75,9.100000381469727 1.649999976158142,9.5 1.649999976158142,9.5 C0.05000000074505806,8.899999618530273 -1.350000023841858,7.699999809265137 -2.6500000953674316,5.800000190734863 C-2.6500000953674316,5.800000190734863 -6.650000095367432,0.30000001192092896 -6.650000095367432,0.30000001192092896 C-6.449999809265137,0.30000001192092896 -6.349999904632568,0.20000000298023224 -6.150000095367432,0.10000000149011612 C-4.75,-0.5 -3.6500000953674316,-1.2000000476837158 -2.950000047683716,-2.200000047683716 C-2.1500000953674316,-3.200000047683716 -1.75,-4.400000095367432 -1.75,-5.699999809265137 C-1.75,-7.699999809265137 -2.450000047683716,-9.199999809265137 -3.950000047683716,-10.199999809265137 C-5.349999904632568,-11.199999809265137 -7.650000095367432,-11.699999809265137 -10.649999618530273,-11.699999809265137 C-10.649999618530273,-11.699999809265137 -20.850000381469727,-11.699999809265137 -20.850000381469727,-11.699999809265137 C-20.850000381469727,-11.699999809265137 -20.850000381469727,-9.699999809265137 -20.850000381469727,-9.699999809265137 C-20.950000762939453,-9.699999809265137 -18.450000762939453,-9.100000381469727 -18.450000762939453,-9.100000381469727 C-18.450000762939453,-9 -18.350000381469727,-8.300000190734863 -18.25,-7.199999809265137 C-18.25,-7.199999809265137 -18.25,-3.0999999046325684 -18.25,-3.0999999046325684 C-18.25,-3.0999999046325684 -18.25,2.5 -18.25,2.5 C-18.25,2.5 -18.25,4.800000190734863 -18.25,4.800000190734863 C-18.25,4.800000190734863 -18.25,7.199999809265137 -18.25,7.199999809265137 C-18.25,7.199999809265137 -18.25,8.600000381469727 -18.25,8.600000381469727 C-18.25,8.600000381469727 -20.75,9.300000190734863 -20.75,9.300000190734863 C-20.75,9.300000190734863 -20.75,11.300000190734863 -20.75,11.300000190734863 C-20.75,11.300000190734863 -10.550000190734863,11.300000190734863 -10.550000190734863,11.300000190734863 C-10.550000190734863,11.300000190734863 -10.550000190734863,9.300000190734863 -10.550000190734863,9.300000190734863 C-10.550000190734863,9.300000190734863 -12.649999618530273,8.600000381469727 -12.649999618530273,8.600000381469727 C-12.649999618530273,8.600000381469727 -12.649999618530273,7 -12.649999618530273,7 C-12.649999618530273,7 -12.649999618530273,4.800000190734863 -12.649999618530273,4.800000190734863 C-12.649999618530273,4.800000190734863 -12.649999618530273,2.5999999046325684 -12.649999618530273,2.5999999046325684 C-12.649999618530273,2.5999999046325684 -12.649999618530273,0.8999999761581421 -12.649999618530273,0.8999999761581421 C-12.649999618530273,0.8999999761581421 -11.25,0.8999999761581421 -11.25,0.8999999761581421 C-11.25,0.8999999761581421 -9.350000381469727,5.099999904632568 -9.350000381469727,5.099999904632568 C-8.350000381469727,7.400000095367432 -7.050000190734863,9.100000381469727 -5.550000190734863,10.100000381469727 C-4.050000190734863,11.199999809265137 -2.1500000953674316,11.699999809265137 0.05000000074505806,11.699999809265137 C2.25,11.699999809265137 1.75,11.699999809265137 2.549999952316284,11.5 C2.549999952316284,11.5 8.050000190734863,11.5 8.050000190734863,11.5 C8.050000190734863,11.5 8.050000190734863,9.699999809265137 8.050000190734863,9.699999809265137 C8.149999618530273,9.699999809265137 6.349999904632568,9 6.349999904632568,9 C6.349999904632568,9 9.449999809265137,4.699999809265137 9.449999809265137,4.699999809265137 C9.449999809265137,4.699999809265137 12.850000381469727,9 12.850000381469727,9 C12.850000381469727,9 11.050000190734863,9.699999809265137 11.050000190734863,9.699999809265137 C11.050000190734863,9.699999809265137 11.050000190734863,11.5 11.050000190734863,11.5 C11.050000190734863,11.5 20.850000381469727,11.5 20.850000381469727,11.5 C20.850000381469727,11.5 20.850000381469727,9.699999809265137 20.850000381469727,9.699999809265137 C20.950000762939453,9.699999809265137 19.149999618530273,9 19.149999618530273,9 C19.149999618530273,9 19.049999237060547,9.100000381469727 19.049999237060547,9.100000381469727z M-8.449999809265137,-2.5 C-9.25,-1.7000000476837158 -10.25,-1.2999999523162842 -11.550000190734863,-1.2999999523162842 C-11.550000190734863,-1.2999999523162842 -12.649999618530273,-1.2999999523162842 -12.649999618530273,-1.2999999523162842 C-12.649999618530273,-1.2999999523162842 -12.649999618530273,-3.200000047683716 -12.649999618530273,-3.200000047683716 C-12.649999618530273,-3.200000047683716 -12.649999618530273,-7.199999809265137 -12.649999618530273,-7.199999809265137 C-12.649999618530273,-7.199999809265137 -12.649999618530273,-9.300000190734863 -12.649999618530273,-9.300000190734863 C-12.649999618530273,-9.300000190734863 -11.25,-9.300000190734863 -11.25,-9.300000190734863 C-8.75,-9.300000190734863 -7.449999809265137,-8.100000381469727 -7.449999809265137,-5.599999904632568 C-7.449999809265137,-3.0999999046325684 -7.849999904632568,-3.200000047683716 -8.649999618530273,-2.4000000953674316 C-8.649999618530273,-2.4000000953674316 -8.449999809265137,-2.5 -8.449999809265137,-2.5z"></path></g></g><g transform="matrix(1,0,0,1,264.25,38.04999923706055)" opacity="0.007405590376048963" style="display: none;"><g opacity="1" transform="matrix(1,0,0,1,21.200000762939453,11.949999809265137)"><path fill="rgb(255,255,255)" fill-opacity="1" d=" M19.049999237060547,9.100000381469727 C19.049999237060547,9.100000381469727 13.449999809265137,2.0999999046325684 13.449999809265137,2.0999999046325684 C13.449999809265137,2.0999999046325684 18.049999237060547,-3.0999999046325684 18.049999237060547,-3.0999999046325684 C18.049999237060547,-3.0999999046325684 19.850000381469727,-3.799999952316284 19.850000381469727,-3.799999952316284 C19.850000381469727,-3.799999952316284 19.850000381469727,-5.599999904632568 19.850000381469727,-5.599999904632568 C19.850000381469727,-5.599999904632568 13.149999618530273,-5.599999904632568 13.149999618530273,-5.599999904632568 C13.149999618530273,-5.599999904632568 13.149999618530273,-3.799999952316284 13.149999618530273,-3.799999952316284 C13.050000190734863,-3.799999952316284 14.649999618530273,-3.0999999046325684 14.649999618530273,-3.0999999046325684 C14.649999618530273,-3.0999999046325684 12.050000190734863,0.4000000059604645 12.050000190734863,0.4000000059604645 C12.050000190734863,0.4000000059604645 9.25,-3.0999999046325684 9.25,-3.0999999046325684 C9.25,-3.0999999046325684 10.850000381469727,-3.799999952316284 10.850000381469727,-3.799999952316284 C10.850000381469727,-3.799999952316284 10.850000381469727,-5.599999904632568 10.850000381469727,-5.599999904632568 C10.850000381469727,-5.599999904632568 1.25,-5.599999904632568 1.25,-5.599999904632568 C1.25,-5.599999904632568 1.25,-3.799999952316284 1.25,-3.799999952316284 C1.25,-3.799999952316284 2.950000047683716,-3.0999999046325684 2.950000047683716,-3.0999999046325684 C2.950000047683716,-3.0999999046325684 7.849999904632568,3.0999999046325684 7.849999904632568,3.0999999046325684 C7.849999904632568,3.0999999046325684 2.75,9.100000381469727 2.75,9.100000381469727 C2.75,9.100000381469727 1.649999976158142,9.5 1.649999976158142,9.5 C0.05000000074505806,8.899999618530273 -1.350000023841858,7.699999809265137 -2.6500000953674316,5.800000190734863 C-2.6500000953674316,5.800000190734863 -6.650000095367432,0.30000001192092896 -6.650000095367432,0.30000001192092896 C-6.449999809265137,0.30000001192092896 -6.349999904632568,0.20000000298023224 -6.150000095367432,0.10000000149011612 C-4.75,-0.5 -3.6500000953674316,-1.2000000476837158 -2.950000047683716,-2.200000047683716 C-2.1500000953674316,-3.200000047683716 -1.75,-4.400000095367432 -1.75,-5.699999809265137 C-1.75,-7.699999809265137 -2.450000047683716,-9.199999809265137 -3.950000047683716,-10.199999809265137 C-5.349999904632568,-11.199999809265137 -7.650000095367432,-11.699999809265137 -10.649999618530273,-11.699999809265137 C-10.649999618530273,-11.699999809265137 -20.850000381469727,-11.699999809265137 -20.850000381469727,-11.699999809265137 C-20.850000381469727,-11.699999809265137 -20.850000381469727,-9.699999809265137 -20.850000381469727,-9.699999809265137 C-20.950000762939453,-9.699999809265137 -18.450000762939453,-9.100000381469727 -18.450000762939453,-9.100000381469727 C-18.450000762939453,-9 -18.350000381469727,-8.300000190734863 -18.25,-7.199999809265137 C-18.25,-7.199999809265137 -18.25,-3.0999999046325684 -18.25,-3.0999999046325684 C-18.25,-3.0999999046325684 -18.25,2.5 -18.25,2.5 C-18.25,2.5 -18.25,4.800000190734863 -18.25,4.800000190734863 C-18.25,4.800000190734863 -18.25,7.199999809265137 -18.25,7.199999809265137 C-18.25,7.199999809265137 -18.25,8.600000381469727 -18.25,8.600000381469727 C-18.25,8.600000381469727 -20.75,9.300000190734863 -20.75,9.300000190734863 C-20.75,9.300000190734863 -20.75,11.300000190734863 -20.75,11.300000190734863 C-20.75,11.300000190734863 -10.550000190734863,11.300000190734863 -10.550000190734863,11.300000190734863 C-10.550000190734863,11.300000190734863 -10.550000190734863,9.300000190734863 -10.550000190734863,9.300000190734863 C-10.550000190734863,9.300000190734863 -12.649999618530273,8.600000381469727 -12.649999618530273,8.600000381469727 C-12.649999618530273,8.600000381469727 -12.649999618530273,7 -12.649999618530273,7 C-12.649999618530273,7 -12.649999618530273,4.800000190734863 -12.649999618530273,4.800000190734863 C-12.649999618530273,4.800000190734863 -12.649999618530273,2.5999999046325684 -12.649999618530273,2.5999999046325684 C-12.649999618530273,2.5999999046325684 -12.649999618530273,0.8999999761581421 -12.649999618530273,0.8999999761581421 C-12.649999618530273,0.8999999761581421 -11.25,0.8999999761581421 -11.25,0.8999999761581421 C-11.25,0.8999999761581421 -9.350000381469727,5.099999904632568 -9.350000381469727,5.099999904632568 C-8.350000381469727,7.400000095367432 -7.050000190734863,9.100000381469727 -5.550000190734863,10.100000381469727 C-4.050000190734863,11.199999809265137 -2.1500000953674316,11.699999809265137 0.05000000074505806,11.699999809265137 C2.25,11.699999809265137 1.75,11.699999809265137 2.549999952316284,11.5 C2.549999952316284,11.5 8.050000190734863,11.5 8.050000190734863,11.5 C8.050000190734863,11.5 8.050000190734863,9.699999809265137 8.050000190734863,9.699999809265137 C8.149999618530273,9.699999809265137 6.349999904632568,9 6.349999904632568,9 C6.349999904632568,9 9.449999809265137,4.699999809265137 9.449999809265137,4.699999809265137 C9.449999809265137,4.699999809265137 12.850000381469727,9 12.850000381469727,9 C12.850000381469727,9 11.050000190734863,9.699999809265137 11.050000190734863,9.699999809265137 C11.050000190734863,9.699999809265137 11.050000190734863,11.5 11.050000190734863,11.5 C11.050000190734863,11.5 20.850000381469727,11.5 20.850000381469727,11.5 C20.850000381469727,11.5 20.850000381469727,9.699999809265137 20.850000381469727,9.699999809265137 C20.950000762939453,9.699999809265137 19.149999618530273,9 19.149999618530273,9 C19.149999618530273,9 19.049999237060547,9.100000381469727 19.049999237060547,9.100000381469727z M-8.449999809265137,-2.5 C-9.25,-1.7000000476837158 -10.25,-1.2999999523162842 -11.550000190734863,-1.2999999523162842 C-11.550000190734863,-1.2999999523162842 -12.649999618530273,-1.2999999523162842 -12.649999618530273,-1.2999999523162842 C-12.649999618530273,-1.2999999523162842 -12.649999618530273,-3.200000047683716 -12.649999618530273,-3.200000047683716 C-12.649999618530273,-3.200000047683716 -12.649999618530273,-7.199999809265137 -12.649999618530273,-7.199999809265137 C-12.649999618530273,-7.199999809265137 -12.649999618530273,-9.300000190734863 -12.649999618530273,-9.300000190734863 C-12.649999618530273,-9.300000190734863 -11.25,-9.300000190734863 -11.25,-9.300000190734863 C-8.75,-9.300000190734863 -7.449999809265137,-8.100000381469727 -7.449999809265137,-5.599999904632568 C-7.449999809265137,-3.0999999046325684 -7.849999904632568,-3.200000047683716 -8.649999618530273,-2.4000000953674316 C-8.649999618530273,-2.4000000953674316 -8.449999809265137,-2.5 -8.449999809265137,-2.5z"></path></g></g></g></svg>